<?xml version="1.0" encoding="UTF-8" standalone="no"?>
<svg
   xmlns:dc="http://purl.org/dc/elements/1.1/"
   xmlns:cc="http://creativecommons.org/ns#"
   xmlns:rdf="http://www.w3.org/1999/02/22-rdf-syntax-ns#"
   xmlns:svg="http://www.w3.org/2000/svg"
   xmlns="http://www.w3.org/2000/svg"
   xmlns:sodipodi="http://sodipodi.sourceforge.net/DTD/sodipodi-0.dtd"
   xmlns:inkscape="http://www.inkscape.org/namespaces/inkscape"
   width="500"
   height="400"
   version="1.1"
   id="svg159"
   sodipodi:docname="vanguard-1.svg"
   inkscape:version="0.92.3 (2405546, 2018-03-11)"
   inkscape:export-filename="C:\Users\hendr\git\hendrixjoseph.github.io\images\fund-venn-diagrams\vanguard-1.png"
   inkscape:export-xdpi="96"
   inkscape:export-ydpi="96">
  <metadata
     id="metadata163">
    <rdf:RDF>
      <cc:Work
         rdf:about="">
        <dc:format>image/svg+xml</dc:format>
        <dc:type
           rdf:resource="http://purl.org/dc/dcmitype/StillImage" />
        <dc:title></dc:title>
      </cc:Work>
    </rdf:RDF>
  </metadata>
  <sodipodi:namedview
     pagecolor="#ffffff"
     bordercolor="#666666"
     borderopacity="1"
     objecttolerance="10"
     gridtolerance="10"
     guidetolerance="10"
     inkscape:pageopacity="0"
     inkscape:pageshadow="2"
     inkscape:window-width="640"
     inkscape:window-height="480"
     id="namedview161"
     showgrid="false"
     inkscape:zoom="1.4721963"
     inkscape:cx="250"
     inkscape:cy="286.6053"
     inkscape:current-layer="svg159" />
  <defs
     id="defs7">
    <linearGradient
       id="venn-56"
       x1="0.60866535"
       y1="1.6429389"
       x2="656.1413"
       y2="657.17554"
       gradientTransform="matrix(0.7620742,0,0,0.60964167,-0.24609,-0.32159798)"
       gradientUnits="userSpaceOnUse">
      <stop
         offset="0"
         stop-color="rgb(255, 255, 255)"
         stop-opacity="1"
         id="stop2" />
      <stop
         offset="1"
         stop-color="rgb(240, 240, 255)"
         stop-opacity="1"
         id="stop4" />
    </linearGradient>
  </defs>
  <rect
     x="0.68161011"
     y="1.68161"
     width="498.63678"
     height="397.63678"
     id="rect9"
     style="fill:url(#venn-56);fill-opacity:1;stroke:#4572a7;stroke-width:1.36321998;stroke-opacity:1" />
  <text
     style="font-size:10px;font-family:Arial, sans-serif;fill:#000000"
     class="vennchart-subtitle"
     x="250"
     y="19"
     id="text13" />
  <g
     class="venn-area venn-circle venn-sets-4"
     id="g21"
     transform="translate(-289)">
    <path
       d="m 486.13957,213.2 m -170,0 a 170,170 0 1 0 340,0 170,170 0 1 0 -340,0"
       style="fill:#9467bd;fill-opacity:0.25;stroke:#ff0000;stroke-width:0;stroke-opacity:0"
       id="path15"
       inkscape:connector-curvature="0" />
    <text
       dy="0.34999999em"
       x="457"
       y="212"
       style="text-anchor:middle;fill:#9467bd"
       id="text19">
      <tspan
         x="457"
         y="212"
         dy="0.34999999em"
         id="tspan17">VTWAX</tspan>
    </text>
  </g>
  <g
     class="venn-area venn-circle venn-sets-3"
     id="g29"
     transform="translate(-289)">
    <path
       d="m 652.32456,213.20063 m -109.53588,0 a 109.53588,109.53588 0 1 0 219.07175,0 109.53588,109.53588 0 1 0 -219.07175,0"
       style="fill:#d62728;fill-opacity:0.25;stroke:#ff0000;stroke-width:0;stroke-opacity:0"
       id="path23"
       inkscape:connector-curvature="0" />
    <text
       dy="0.34999999em"
       x="695"
       y="212"
       style="text-anchor:middle;fill:#d62728"
       id="text27">
      <tspan
         x="695"
         y="212"
         dy="0.34999999em"
         id="tspan25">VTSAX</tspan>
    </text>
  </g>
  <g
     class="venn-area venn-circle venn-sets-0"
     id="g37"
     transform="translate(-289)">
    <path
       d="m 601.52523,270.71098 m -41.75513,0 a 41.755135,41.755135 0 1 0 83.51027,0 41.755135,41.755135 0 1 0 -83.51027,0"
       style="fill:#1f77b4;fill-opacity:0.25;stroke:#ff0000;stroke-width:0;stroke-opacity:0"
       id="path31"
       inkscape:connector-curvature="0" />
    <text
       dy="0.34999999em"
       x="601"
       y="270"
       style="text-anchor:middle;fill:#1f77b4"
       id="text35">
      <tspan
         x="601"
         y="270"
         dy="0.34999999em"
         id="tspan33">VFIAX</tspan>
    </text>
  </g>
  <g
     class="venn-area venn-circle venn-sets-1"
     id="g45"
     transform="translate(-289)">
    <path
       d="m 560.65903,234.50785 m -25.01737,0 a 25.017367,25.017367 0 1 0 50.03473,0 25.017367,25.017367 0 1 0 -50.03473,0"
       style="fill:#ff7f0e;fill-opacity:0.25;stroke:#ff0000;stroke-width:0;stroke-opacity:0"
       id="path39"
       inkscape:connector-curvature="0" />
    <text
       dy="0.34999999em"
       x="560"
       y="234"
       style="text-anchor:middle;fill:#ff7f0e"
       id="text43">
      <tspan
         x="560"
         y="234"
         dy="0.34999999em"
         id="tspan41">VGSLX</tspan>
    </text>
  </g>
  <path
     inkscape:connector-curvature="0"
     id="path47"
     style="fill:#2ca02c;fill-opacity:0.25;stroke:#ff0000;stroke-width:0;stroke-opacity:0"
     d="m 270.37164,237.12484 m -24.81032,0 a 24.810325,24.810325 0 1 0 49.62065,0 24.810325,24.810325 0 1 0 -49.62065,0" />
  <text
     id="text51"
     style="text-anchor:middle;fill:#2ca02c"
     y="247"
     x="270"
     dy="4.1999998">
    <tspan
       id="tspan49"
       dy="4.1999998"
       y="247"
       x="270">VRTPX</tspan>
  </text>
  <g
     class="venn-area venn-intersection venn-sets-0_4"
     id="g57"
     transform="translate(-289)">
    <path
       d="m 634.25243,296.64208 a 41.755134,41.755134 0 1 1 7.68068,-15.40993 170,170 0 0 1 -7.68068,15.40993"
       style="fill-opacity:0;stroke:#ff0000;stroke-width:0;stroke-opacity:0"
       id="path55"
       inkscape:connector-curvature="0" />
  </g>
  <g
     class="venn-area venn-intersection venn-sets-0_3"
     id="g61"
     transform="translate(-289)">
    <path
       d="m 559.78443,271.80466 a 41.755134,41.755134 0 1 1 45.80835,40.46286 109.53588,109.53588 0 0 1 -45.80835,-40.46286"
       style="fill-opacity:0;stroke:#ff0000;stroke-width:0;stroke-opacity:0"
       id="path59"
       inkscape:connector-curvature="0" />
  </g>
  <g
     class="venn-area venn-intersection venn-sets-1_2"
     id="g65"
     transform="translate(-289)">
    <path
       d="m 536.97397,226.45262 a 24.810323,24.810323 0 1 1 44.52133,21.90146 25.017367,25.017367 0 0 1 -44.52133,-21.90146"
       style="fill-opacity:0;stroke:#ff0000;stroke-width:0;stroke-opacity:0"
       id="path63"
       inkscape:connector-curvature="0" />
  </g>
  <g
     class="venn-area venn-intersection venn-sets-1_3"
     id="g69"
     transform="translate(-289)">
    <path
       d="m 542.85237,216.93538 a 25.017367,25.017367 0 1 1 9.57608,41.19716 109.53588,109.53588 0 0 1 -9.57608,-41.19716"
       style="fill-opacity:0;stroke:#ff0000;stroke-width:0;stroke-opacity:0"
       id="path67"
       inkscape:connector-curvature="0" />
  </g>
  <g
     class="venn-area venn-intersection venn-sets-1_4"
     id="g73"
     transform="translate(-289)">
    <path
       d="m 560.65903,234.50785 m -25.01737,0 a 25.017367,25.017367 0 1 0 50.03473,0 25.017367,25.017367 0 1 0 -50.03473,0"
       style="fill-opacity:0;stroke:#ff0000;stroke-width:0;stroke-opacity:0"
       id="path71"
       inkscape:connector-curvature="0" />
  </g>
  <g
     class="venn-area venn-intersection venn-sets-2_3"
     id="g77"
     transform="translate(-289)">
    <path
       d="m 542.91957,218.55385 a 24.810323,24.810323 0 1 1 11.00996,42.77709 109.53588,109.53588 0 0 1 -11.00996,-42.77709"
       style="fill-opacity:0;stroke:#ff0000;stroke-width:0;stroke-opacity:0"
       id="path75"
       inkscape:connector-curvature="0" />
  </g>
  <g
     class="venn-area venn-intersection venn-sets-2_4"
     id="g81"
     transform="translate(-289)">
    <path
       d="m 559.37164,237.12484 m -24.81032,0 a 24.810325,24.810325 0 1 0 49.62065,0 24.810325,24.810325 0 1 0 -49.62065,0"
       style="fill-opacity:0;stroke:#ff0000;stroke-width:0;stroke-opacity:0"
       id="path79"
       inkscape:connector-curvature="0" />
  </g>
  <g
     class="venn-area venn-intersection venn-sets-0_1"
     id="g85"
     transform="translate(-289)">
    <path
       d="m 561.29854,259.51704 a 41.755134,41.755134 0 0 1 24.26434,-27.38966 25.017367,25.017367 0 0 1 -24.26434,27.38966"
       style="fill-opacity:0;stroke:#ff0000;stroke-width:0;stroke-opacity:0"
       id="path83"
       inkscape:connector-curvature="0" />
  </g>
  <g
     class="venn-area venn-intersection venn-sets-0_2"
     id="g89"
     transform="translate(-289)">
    <path
       d="m 560.71053,261.89901 a 41.755134,41.755134 0 0 1 23.10838,-29.00307 24.810323,24.810323 0 0 1 -23.10838,29.00307"
       style="fill-opacity:0;stroke:#ff0000;stroke-width:0;stroke-opacity:0"
       id="path87"
       inkscape:connector-curvature="0" />
  </g>
  <g
     class="venn-area venn-intersection venn-sets-3_4"
     id="g93"
     transform="translate(-289)">
    <path
       d="m 620.08431,317.88432 a 109.53588,109.53588 0 0 1 7.9e-4,-209.36762 170,170 0 0 1 -7.9e-4,209.36762"
       style="fill-opacity:0;stroke:#ff0000;stroke-width:0;stroke-opacity:0"
       id="path91"
       inkscape:connector-curvature="0" />
  </g>
  <g
     class="venn-area venn-intersection venn-sets-0_3_4"
     id="g97"
     transform="translate(-289)">
    <path
       d="m 559.78443,271.80466 a 41.755134,41.755134 0 1 1 82.14868,9.42749 170,170 0 0 1 -7.68068,15.40993 41.755134,41.755134 0 0 1 -28.65965,15.62544 109.53588,109.53588 0 0 1 -45.80835,-40.46286"
       style="fill-opacity:0;stroke:#ff0000;stroke-width:0;stroke-opacity:0"
       id="path95"
       inkscape:connector-curvature="0" />
  </g>
  <g
     class="venn-area venn-intersection venn-sets-1_2_3"
     id="g101"
     transform="translate(-289)">
    <path
       d="m 542.91957,218.55385 a 24.810323,24.810323 0 0 1 38.57573,29.80023 25.017367,25.017367 0 0 1 -29.06685,9.77846 109.53588,109.53588 0 0 1 -9.50888,-39.57869"
       style="fill-opacity:0;stroke:#ff0000;stroke-width:0;stroke-opacity:0"
       id="path99"
       inkscape:connector-curvature="0" />
  </g>
  <g
     class="venn-area venn-intersection venn-sets-1_2_4"
     id="g105"
     transform="translate(-289)">
    <path
       d="m 536.97397,226.45262 a 24.810323,24.810323 0 1 1 44.52133,21.90146 25.017367,25.017367 0 0 1 -44.52133,-21.90146"
       style="fill-opacity:0;stroke:#ff0000;stroke-width:0;stroke-opacity:0"
       id="path103"
       inkscape:connector-curvature="0" />
  </g>
  <g
     class="venn-area venn-intersection venn-sets-1_3_4"
     id="g109"
     transform="translate(-289)">
    <path
       d="m 542.85237,216.93538 a 25.017367,25.017367 0 1 1 9.57608,41.19716 109.53588,109.53588 0 0 1 -9.57608,-41.19716"
       style="fill-opacity:0;stroke:#ff0000;stroke-width:0;stroke-opacity:0"
       id="path107"
       inkscape:connector-curvature="0" />
  </g>
  <g
     class="venn-area venn-intersection venn-sets-2_3_4"
     id="g113"
     transform="translate(-289)">
    <path
       d="m 542.91957,218.55385 a 24.810323,24.810323 0 1 1 11.00996,42.77709 109.53588,109.53588 0 0 1 -11.00996,-42.77709"
       style="fill-opacity:0;stroke:#ff0000;stroke-width:0;stroke-opacity:0"
       id="path111"
       inkscape:connector-curvature="0" />
  </g>
  <g
     class="venn-area venn-intersection venn-sets-0_1_4"
     id="g117"
     transform="translate(-289)">
    <path
       d="m 561.29854,259.51704 a 41.755134,41.755134 0 0 1 24.26434,-27.38966 25.017367,25.017367 0 0 1 -24.26434,27.38966"
       style="fill-opacity:0;stroke:#ff0000;stroke-width:0;stroke-opacity:0"
       id="path115"
       inkscape:connector-curvature="0" />
  </g>
  <g
     class="venn-area venn-intersection venn-sets-0_2_4"
     id="g121"
     transform="translate(-289)">
    <path
       d="m 560.71053,261.89901 a 41.755134,41.755134 0 0 1 23.10838,-29.00307 24.810323,24.810323 0 0 1 -23.10838,29.00307"
       style="fill-opacity:0;stroke:#ff0000;stroke-width:0;stroke-opacity:0"
       id="path119"
       inkscape:connector-curvature="0" />
  </g>
  <g
     class="venn-area venn-intersection venn-sets-0_1_2"
     id="g125"
     transform="translate(-289)">
    <path
       d="m 561.29854,259.51704 a 41.755134,41.755134 0 0 1 22.52037,-26.6211 24.810323,24.810323 0 0 1 -2.32361,15.45814 25.017367,25.017367 0 0 1 -20.19676,11.16296"
       style="fill-opacity:0;stroke:#ff0000;stroke-width:0;stroke-opacity:0"
       id="path123"
       inkscape:connector-curvature="0" />
  </g>
  <g
     class="venn-area venn-intersection venn-sets-0_1_3"
     id="g129"
     transform="translate(-289)">
    <path
       d="m 561.29854,259.51704 a 41.755134,41.755134 0 0 1 24.26434,-27.38966 25.017367,25.017367 0 0 1 -24.26434,27.38966"
       style="fill-opacity:0;stroke:#ff0000;stroke-width:0;stroke-opacity:0"
       id="path127"
       inkscape:connector-curvature="0" />
  </g>
  <g
     class="venn-area venn-intersection venn-sets-0_2_3"
     id="g133"
     transform="translate(-289)">
    <path
       d="m 560.71053,261.89901 a 41.755134,41.755134 0 0 1 23.10838,-29.00307 24.810323,24.810323 0 0 1 -23.10838,29.00307"
       style="fill-opacity:0;stroke:#ff0000;stroke-width:0;stroke-opacity:0"
       id="path131"
       inkscape:connector-curvature="0" />
  </g>
  <g
     class="venn-area venn-intersection venn-sets-1_2_3_4"
     id="g137"
     transform="translate(-289)">
    <path
       d="m 542.91957,218.55385 a 24.810323,24.810323 0 0 1 38.57573,29.80023 25.017367,25.017367 0 0 1 -29.06685,9.77846 109.53588,109.53588 0 0 1 -9.50888,-39.57869"
       style="fill-opacity:0;stroke:#ff0000;stroke-width:0;stroke-opacity:0"
       id="path135"
       inkscape:connector-curvature="0" />
  </g>
  <g
     class="venn-area venn-intersection venn-sets-0_1_2_4"
     id="g141"
     transform="translate(-289)">
    <path
       d="m 561.29854,259.51704 a 41.755134,41.755134 0 0 1 22.52037,-26.6211 24.810323,24.810323 0 0 1 -2.32361,15.45814 25.017367,25.017367 0 0 1 -20.19676,11.16296"
       style="fill-opacity:0;stroke:#ff0000;stroke-width:0;stroke-opacity:0"
       id="path139"
       inkscape:connector-curvature="0" />
  </g>
  <g
     class="venn-area venn-intersection venn-sets-0_1_3_4"
     id="g145"
     transform="translate(-289)">
    <path
       d="m 561.29854,259.51704 a 41.755134,41.755134 0 0 1 24.26434,-27.38966 25.017367,25.017367 0 0 1 -24.26434,27.38966"
       style="fill-opacity:0;stroke:#ff0000;stroke-width:0;stroke-opacity:0"
       id="path143"
       inkscape:connector-curvature="0" />
  </g>
  <g
     class="venn-area venn-intersection venn-sets-0_2_3_4"
     id="g149"
     transform="translate(-289)">
    <path
       d="m 560.71053,261.89901 a 41.755134,41.755134 0 0 1 23.10838,-29.00307 24.810323,24.810323 0 0 1 -23.10838,29.00307"
       style="fill-opacity:0;stroke:#ff0000;stroke-width:0;stroke-opacity:0"
       id="path147"
       inkscape:connector-curvature="0" />
  </g>
  <g
     class="venn-area venn-intersection venn-sets-0_1_2_3"
     id="g153"
     transform="translate(-289)">
    <path
       d="m 561.29854,259.51704 a 41.755134,41.755134 0 0 1 22.52037,-26.6211 24.810323,24.810323 0 0 1 -2.32361,15.45814 25.017367,25.017367 0 0 1 -20.19676,11.16296"
       style="fill-opacity:0;stroke:#ff0000;stroke-width:0;stroke-opacity:0"
       id="path151"
       inkscape:connector-curvature="0" />
  </g>
  <g
     class="venn-area venn-intersection venn-sets-0_1_2_3_4"
     id="g157"
     transform="translate(-289)">
    <path
       d="m 561.29854,259.51704 a 41.755134,41.755134 0 0 1 22.52037,-26.6211 24.810323,24.810323 0 0 1 -2.32361,15.45814 25.017367,25.017367 0 0 1 -20.19676,11.16296"
       style="fill-opacity:0;stroke:#ff0000;stroke-width:0;stroke-opacity:0"
       id="path155"
       inkscape:connector-curvature="0" />
  </g>
</svg>
