<?xml version="1.0" encoding="UTF-8" standalone="no"?>
<svg
   xmlns:dc="http://purl.org/dc/elements/1.1/"
   xmlns:cc="http://creativecommons.org/ns#"
   xmlns:rdf="http://www.w3.org/1999/02/22-rdf-syntax-ns#"
   xmlns:svg="http://www.w3.org/2000/svg"
   xmlns="http://www.w3.org/2000/svg"
   xmlns:sodipodi="http://sodipodi.sourceforge.net/DTD/sodipodi-0.dtd"
   xmlns:inkscape="http://www.inkscape.org/namespaces/inkscape"
   width="1078"
   height="400"
   version="1.1"
   id="svg159"
   sodipodi:docname="vanguard-1.svg"
   inkscape:version="0.92.3 (2405546, 2018-03-11)">
  <metadata
     id="metadata163">
    <rdf:RDF>
      <cc:Work
         rdf:about="">
        <dc:format>image/svg+xml</dc:format>
        <dc:type
           rdf:resource="http://purl.org/dc/dcmitype/StillImage" />
      </cc:Work>
    </rdf:RDF>
  </metadata>
  <sodipodi:namedview
     pagecolor="#ffffff"
     bordercolor="#666666"
     borderopacity="1"
     objecttolerance="10"
     gridtolerance="10"
     guidetolerance="10"
     inkscape:pageopacity="0"
     inkscape:pageshadow="2"
     inkscape:window-width="640"
     inkscape:window-height="480"
     id="namedview161"
     showgrid="false"
     inkscape:zoom="1.6372913"
     inkscape:cx="539"
     inkscape:cy="200"
     inkscape:current-layer="svg159" />
  <defs
     id="defs7">
    <linearGradient
       id="venn-56"
       x1="0"
       y1="0"
       x2="1"
       y2="1">
      <stop
         offset="0"
         stop-color="rgb(255, 255, 255)"
         stop-opacity="1"
         id="stop2" />
      <stop
         offset="1"
         stop-color="rgb(240, 240, 255)"
         stop-opacity="1"
         id="stop4" />
    </linearGradient>
  </defs>
  <rect
     x="2"
     y="2"
     width="1075"
     height="397"
     fill="url(#venn-56)"
     stroke-width="2"
     stroke="#4572a7"
     fill-opacity="1"
     stroke-opacity="1"
     id="rect9" />
  <text
     style="font-size:10px;font-family:'Arial', sans-serif"
     fill="#000"
     class="vennchart-subtitle"
     x="539"
     y="19"
     id="text13" />
  <g
     class="venn-area venn-circle venn-sets-4"
     id="g21">
    <path
       d=" M 486.1395678286119 213.2  m -170 0  a 170 170 0 1 0 340 0  a 170 170 0 1 0 -340 0"
       style="fill-opacity: 0.25; fill: rgb(148, 103, 189); stroke-opacity: 0; stroke: red; stroke-width: 0;"
       id="path15" />
    <text
       text-anchor="middle"
       dy=".35em"
       x="457"
       y="212"
       style="fill: rgb(148, 103, 189);"
       id="text19">
      <tspan
         x="457"
         y="212"
         dy="0.35em"
         id="tspan17">VTWAX</tspan>
    </text>
  </g>
  <g
     class="venn-area venn-circle venn-sets-3"
     id="g29">
    <path
       d=" M 652.3245565698818 213.20063269601087  m -109.53587560150635 0  a 109.53587560150635 109.53587560150635 0 1 0 219.0717512030127 0  a 109.53587560150635 109.53587560150635 0 1 0 -219.0717512030127 0"
       style="fill-opacity: 0.25; fill: rgb(214, 39, 40); stroke-opacity: 0; stroke: red; stroke-width: 0;"
       id="path23" />
    <text
       text-anchor="middle"
       dy=".35em"
       x="695"
       y="212"
       style="fill: rgb(214, 39, 40);"
       id="text27">
      <tspan
         x="695"
         y="212"
         dy="0.35em"
         id="tspan25">VTSAX</tspan>
    </text>
  </g>
  <g
     class="venn-area venn-circle venn-sets-0"
     id="g37">
    <path
       d=" M 601.5252339329936 270.7109793564362  m -41.755133752260996 0  a 41.755133752260996 41.755133752260996 0 1 0 83.51026750452199 0  a 41.755133752260996 41.755133752260996 0 1 0 -83.51026750452199 0"
       style="fill-opacity: 0.25; fill: rgb(31, 119, 180); stroke-opacity: 0; stroke: red; stroke-width: 0;"
       id="path31" />
    <text
       text-anchor="middle"
       dy=".35em"
       x="601"
       y="270"
       style="fill: rgb(31, 119, 180);"
       id="text35">
      <tspan
         x="601"
         y="270"
         dy="0.35em"
         id="tspan33">VFIAX</tspan>
    </text>
  </g>
  <g
     class="venn-area venn-circle venn-sets-1"
     id="g45">
    <path
       d=" M 560.659025370917 234.5078453648947  m -25.017366647667323 0  a 25.017366647667323 25.017366647667323 0 1 0 50.03473329533465 0  a 25.017366647667323 25.017366647667323 0 1 0 -50.03473329533465 0"
       style="fill-opacity: 0.25; fill: rgb(255, 127, 14); stroke-opacity: 0; stroke: red; stroke-width: 0;"
       id="path39" />
    <text
       text-anchor="middle"
       dy=".35em"
       x="560"
       y="234"
       style="fill: rgb(255, 127, 14);"
       id="text43">
      <tspan
         x="560"
         y="234"
         dy="0.35em"
         id="tspan41">VGSLX</tspan>
    </text>
  </g>
  <g
     class="venn-area venn-circle venn-sets-2"
     id="g53">
    <path
       d=" M 559.3716443169342 237.12483583351843  m -24.810322812068147 0  a 24.810322812068147 24.810322812068147 0 1 0 49.620645624136294 0  a 24.810322812068147 24.810322812068147 0 1 0 -49.620645624136294 0"
       style="fill-opacity: 0.25; fill: rgb(44, 160, 44); stroke-opacity: 0; stroke: red; stroke-width: 0;"
       id="path47" />
    <text
       text-anchor="middle"
       dy=".35em"
       x="559"
       y="237"
       style="fill: rgb(44, 160, 44);"
       id="text51">
      <tspan
         x="559"
         y="237"
         dy="0.35em"
         id="tspan49">VRTPX</tspan>
    </text>
  </g>
  <g
     class="venn-area venn-intersection venn-sets-0_4"
     id="g57">
    <path
       d=" M 634.2524279202057 296.64207976487603  A 41.755133752260996 41.755133752260996 0 1 1 641.9331070196681 281.23214788851556  A 170 170 0 0 1 634.2524279202057 296.64207976487603"
       style="fill-opacity: 0; stroke-opacity: 0; stroke: red; stroke-width: 0;"
       id="path55" />
  </g>
  <g
     class="venn-area venn-intersection venn-sets-0_3"
     id="g61">
    <path
       d=" M 559.7844259308108 271.80466212311046  A 41.755133752260996 41.755133752260996 0 1 1 605.5927757356746 312.2675227443631  A 109.53587560150635 109.53587560150635 0 0 1 559.7844259308108 271.80466212311046"
       style="fill-opacity: 0; stroke-opacity: 0; stroke: red; stroke-width: 0;"
       id="path59" />
  </g>
  <g
     class="venn-area venn-intersection venn-sets-1_2"
     id="g65">
    <path
       d=" M 536.9739666430766 226.45262177752204  A 24.810322812068147 24.810322812068147 0 1 1 581.4952988355391 248.35408464100504  A 25.017366647667323 25.017366647667323 0 0 1 536.9739666430766 226.45262177752204"
       style="fill-opacity: 0; stroke-opacity: 0; stroke: red; stroke-width: 0;"
       id="path63" />
  </g>
  <g
     class="venn-area venn-intersection venn-sets-1_3"
     id="g69">
    <path
       d=" M 542.852369561317 216.93537704475665  A 25.017366647667323 25.017366647667323 0 1 1 552.4284528749187 258.13254240786085  A 109.53587560150635 109.53587560150635 0 0 1 542.852369561317 216.93537704475665"
       style="fill-opacity: 0; stroke-opacity: 0; stroke: red; stroke-width: 0;"
       id="path67" />
  </g>
  <g
     class="venn-area venn-intersection venn-sets-1_4"
     id="g73">
    <path
       d=" M 560.659025370917 234.5078453648947  m -25.017366647667323 0  a 25.017366647667323 25.017366647667323 0 1 0 50.03473329533465 0  a 25.017366647667323 25.017366647667323 0 1 0 -50.03473329533465 0"
       style="fill-opacity: 0; stroke-opacity: 0; stroke: red; stroke-width: 0;"
       id="path71" />
  </g>
  <g
     class="venn-area venn-intersection venn-sets-2_3"
     id="g77">
    <path
       d=" M 542.9195700884432 218.55385385573254  A 24.810322812068147 24.810322812068147 0 1 1 553.9295285867959 261.33094032017243  A 109.53587560150635 109.53587560150635 0 0 1 542.9195700884432 218.55385385573254"
       style="fill-opacity: 0; stroke-opacity: 0; stroke: red; stroke-width: 0;"
       id="path75" />
  </g>
  <g
     class="venn-area venn-intersection venn-sets-2_4"
     id="g81">
    <path
       d=" M 559.3716443169342 237.12483583351843  m -24.810322812068147 0  a 24.810322812068147 24.810322812068147 0 1 0 49.620645624136294 0  a 24.810322812068147 24.810322812068147 0 1 0 -49.620645624136294 0"
       style="fill-opacity: 0; stroke-opacity: 0; stroke: red; stroke-width: 0;"
       id="path79" />
  </g>
  <g
     class="venn-area venn-intersection venn-sets-0_1"
     id="g85">
    <path
       d=" M 561.2985407587552 259.5170367563119  A 41.755133752260996 41.755133752260996 0 0 1 585.5628804630743 232.12737576150795  A 25.017366647667323 25.017366647667323 0 0 1 561.2985407587552 259.5170367563119"
       style="fill-opacity: 0; stroke-opacity: 0; stroke: red; stroke-width: 0;"
       id="path83" />
  </g>
  <g
     class="venn-area venn-intersection venn-sets-0_2"
     id="g89">
    <path
       d=" M 560.7105267577164 261.8990060890244  A 41.755133752260996 41.755133752260996 0 0 1 583.8189052526758 232.89594108680384  A 24.810322812068147 24.810322812068147 0 0 1 560.7105267577164 261.8990060890244"
       style="fill-opacity: 0; stroke-opacity: 0; stroke: red; stroke-width: 0;"
       id="path87" />
  </g>
  <g
     class="venn-area venn-intersection venn-sets-3_4"
     id="g93">
    <path
       d=" M 620.0843070919022 317.8843198558846  A 109.53587560150635 109.53587560150635 0 0 1 620.0851041919223 108.51670005036577  A 170 170 0 0 1 620.0843070919022 317.8843198558846"
       style="fill-opacity: 0; stroke-opacity: 0; stroke: red; stroke-width: 0;"
       id="path91" />
  </g>
  <g
     class="venn-area venn-intersection venn-sets-0_3_4"
     id="g97">
    <path
       d=" M 559.7844259308108 271.80466212311046  A 41.755133752260996 41.755133752260996 0 1 1 641.9331070196681 281.23214788851556  A 170 170 0 0 1 634.2524279202057 296.64207976487603  A 41.755133752260996 41.755133752260996 0 0 1 605.5927757356746 312.2675227443631  A 109.53587560150635 109.53587560150635 0 0 1 559.7844259308108 271.80466212311046"
       style="fill-opacity: 0; stroke-opacity: 0; stroke: red; stroke-width: 0;"
       id="path95" />
  </g>
  <g
     class="venn-area venn-intersection venn-sets-1_2_3"
     id="g101">
    <path
       d=" M 542.9195700884432 218.55385385573254  A 24.810322812068147 24.810322812068147 0 0 1 581.4952988355391 248.35408464100504  A 25.017366647667323 25.017366647667323 0 0 1 552.4284528749187 258.13254240786085  A 109.53587560150635 109.53587560150635 0 0 1 542.9195700884432 218.55385385573254"
       style="fill-opacity: 0; stroke-opacity: 0; stroke: red; stroke-width: 0;"
       id="path99" />
  </g>
  <g
     class="venn-area venn-intersection venn-sets-1_2_4"
     id="g105">
    <path
       d=" M 536.9739666430766 226.45262177752204  A 24.810322812068147 24.810322812068147 0 1 1 581.4952988355391 248.35408464100504  A 25.017366647667323 25.017366647667323 0 0 1 536.9739666430766 226.45262177752204"
       style="fill-opacity: 0; stroke-opacity: 0; stroke: red; stroke-width: 0;"
       id="path103" />
  </g>
  <g
     class="venn-area venn-intersection venn-sets-1_3_4"
     id="g109">
    <path
       d=" M 542.852369561317 216.93537704475665  A 25.017366647667323 25.017366647667323 0 1 1 552.4284528749187 258.13254240786085  A 109.53587560150635 109.53587560150635 0 0 1 542.852369561317 216.93537704475665"
       style="fill-opacity: 0; stroke-opacity: 0; stroke: red; stroke-width: 0;"
       id="path107" />
  </g>
  <g
     class="venn-area venn-intersection venn-sets-2_3_4"
     id="g113">
    <path
       d=" M 542.9195700884432 218.55385385573254  A 24.810322812068147 24.810322812068147 0 1 1 553.9295285867959 261.33094032017243  A 109.53587560150635 109.53587560150635 0 0 1 542.9195700884432 218.55385385573254"
       style="fill-opacity: 0; stroke-opacity: 0; stroke: red; stroke-width: 0;"
       id="path111" />
  </g>
  <g
     class="venn-area venn-intersection venn-sets-0_1_4"
     id="g117">
    <path
       d=" M 561.2985407587552 259.5170367563119  A 41.755133752260996 41.755133752260996 0 0 1 585.5628804630743 232.12737576150795  A 25.017366647667323 25.017366647667323 0 0 1 561.2985407587552 259.5170367563119"
       style="fill-opacity: 0; stroke-opacity: 0; stroke: red; stroke-width: 0;"
       id="path115" />
  </g>
  <g
     class="venn-area venn-intersection venn-sets-0_2_4"
     id="g121">
    <path
       d=" M 560.7105267577164 261.8990060890244  A 41.755133752260996 41.755133752260996 0 0 1 583.8189052526758 232.89594108680384  A 24.810322812068147 24.810322812068147 0 0 1 560.7105267577164 261.8990060890244"
       style="fill-opacity: 0; stroke-opacity: 0; stroke: red; stroke-width: 0;"
       id="path119" />
  </g>
  <g
     class="venn-area venn-intersection venn-sets-0_1_2"
     id="g125">
    <path
       d=" M 561.2985407587552 259.5170367563119  A 41.755133752260996 41.755133752260996 0 0 1 583.8189052526758 232.89594108680384  A 24.810322812068147 24.810322812068147 0 0 1 581.4952988355391 248.35408464100504  A 25.017366647667323 25.017366647667323 0 0 1 561.2985407587552 259.5170367563119"
       style="fill-opacity: 0; stroke-opacity: 0; stroke: red; stroke-width: 0;"
       id="path123" />
  </g>
  <g
     class="venn-area venn-intersection venn-sets-0_1_3"
     id="g129">
    <path
       d=" M 561.2985407587552 259.5170367563119  A 41.755133752260996 41.755133752260996 0 0 1 585.5628804630743 232.12737576150795  A 25.017366647667323 25.017366647667323 0 0 1 561.2985407587552 259.5170367563119"
       style="fill-opacity: 0; stroke-opacity: 0; stroke: red; stroke-width: 0;"
       id="path127" />
  </g>
  <g
     class="venn-area venn-intersection venn-sets-0_2_3"
     id="g133">
    <path
       d=" M 560.7105267577164 261.8990060890244  A 41.755133752260996 41.755133752260996 0 0 1 583.8189052526758 232.89594108680384  A 24.810322812068147 24.810322812068147 0 0 1 560.7105267577164 261.8990060890244"
       style="fill-opacity: 0; stroke-opacity: 0; stroke: red; stroke-width: 0;"
       id="path131" />
  </g>
  <g
     class="venn-area venn-intersection venn-sets-1_2_3_4"
     id="g137">
    <path
       d=" M 542.9195700884432 218.55385385573254  A 24.810322812068147 24.810322812068147 0 0 1 581.4952988355391 248.35408464100504  A 25.017366647667323 25.017366647667323 0 0 1 552.4284528749187 258.13254240786085  A 109.53587560150635 109.53587560150635 0 0 1 542.9195700884432 218.55385385573254"
       style="fill-opacity: 0; stroke-opacity: 0; stroke: red; stroke-width: 0;"
       id="path135" />
  </g>
  <g
     class="venn-area venn-intersection venn-sets-0_1_2_4"
     id="g141">
    <path
       d=" M 561.2985407587552 259.5170367563119  A 41.755133752260996 41.755133752260996 0 0 1 583.8189052526758 232.89594108680384  A 24.810322812068147 24.810322812068147 0 0 1 581.4952988355391 248.35408464100504  A 25.017366647667323 25.017366647667323 0 0 1 561.2985407587552 259.5170367563119"
       style="fill-opacity: 0; stroke-opacity: 0; stroke: red; stroke-width: 0;"
       id="path139" />
  </g>
  <g
     class="venn-area venn-intersection venn-sets-0_1_3_4"
     id="g145">
    <path
       d=" M 561.2985407587552 259.5170367563119  A 41.755133752260996 41.755133752260996 0 0 1 585.5628804630743 232.12737576150795  A 25.017366647667323 25.017366647667323 0 0 1 561.2985407587552 259.5170367563119"
       style="fill-opacity: 0; stroke-opacity: 0; stroke: red; stroke-width: 0;"
       id="path143" />
  </g>
  <g
     class="venn-area venn-intersection venn-sets-0_2_3_4"
     id="g149">
    <path
       d=" M 560.7105267577164 261.8990060890244  A 41.755133752260996 41.755133752260996 0 0 1 583.8189052526758 232.89594108680384  A 24.810322812068147 24.810322812068147 0 0 1 560.7105267577164 261.8990060890244"
       style="fill-opacity: 0; stroke-opacity: 0; stroke: red; stroke-width: 0;"
       id="path147" />
  </g>
  <g
     class="venn-area venn-intersection venn-sets-0_1_2_3"
     id="g153">
    <path
       d=" M 561.2985407587552 259.5170367563119  A 41.755133752260996 41.755133752260996 0 0 1 583.8189052526758 232.89594108680384  A 24.810322812068147 24.810322812068147 0 0 1 581.4952988355391 248.35408464100504  A 25.017366647667323 25.017366647667323 0 0 1 561.2985407587552 259.5170367563119"
       style="fill-opacity: 0; stroke-opacity: 0; stroke: red; stroke-width: 0;"
       id="path151" />
  </g>
  <g
     class="venn-area venn-intersection venn-sets-0_1_2_3_4"
     id="g157">
    <path
       d=" M 561.2985407587552 259.5170367563119  A 41.755133752260996 41.755133752260996 0 0 1 583.8189052526758 232.89594108680384  A 24.810322812068147 24.810322812068147 0 0 1 581.4952988355391 248.35408464100504  A 25.017366647667323 25.017366647667323 0 0 1 561.2985407587552 259.5170367563119"
       style="fill-opacity: 0; stroke-opacity: 0; stroke: red; stroke-width: 0;"
       id="path155" />
  </g>
</svg>
