<?xml version="1.0" encoding="UTF-8" standalone="no"?>
<svg
   xmlns:dc="http://purl.org/dc/elements/1.1/"
   xmlns:cc="http://creativecommons.org/ns#"
   xmlns:rdf="http://www.w3.org/1999/02/22-rdf-syntax-ns#"
   xmlns:svg="http://www.w3.org/2000/svg"
   xmlns="http://www.w3.org/2000/svg"
   xmlns:sodipodi="http://sodipodi.sourceforge.net/DTD/sodipodi-0.dtd"
   xmlns:inkscape="http://www.inkscape.org/namespaces/inkscape"
   width="500"
   height="400"
   version="1.1"
   id="svg159"
   sodipodi:docname="vanguard-2.svg"
   inkscape:version="0.92.3 (2405546, 2018-03-11)"
   inkscape:export-filename="C:\Users\hendr\git\hendrixjoseph.github.io\images\fund-venn-diagrams\vanguard-2.png"
   inkscape:export-xdpi="96"
   inkscape:export-ydpi="96">
  <metadata
     id="metadata163">
    <rdf:RDF>
      <cc:Work
         rdf:about="">
        <dc:format>image/svg+xml</dc:format>
        <dc:type
           rdf:resource="http://purl.org/dc/dcmitype/StillImage" />
        <dc:title></dc:title>
      </cc:Work>
    </rdf:RDF>
  </metadata>
  <sodipodi:namedview
     pagecolor="#ffffff"
     bordercolor="#666666"
     borderopacity="1"
     objecttolerance="10"
     gridtolerance="10"
     guidetolerance="10"
     inkscape:pageopacity="0"
     inkscape:pageshadow="2"
     inkscape:window-width="640"
     inkscape:window-height="480"
     id="namedview161"
     showgrid="false"
     inkscape:zoom="1.4230524"
     inkscape:cx="231.37806"
     inkscape:cy="200"
     inkscape:current-layer="svg159" />
  <defs
     id="defs7">
    <linearGradient
       id="venn-7"
       x1="0.60866535"
       y1="1.6429389"
       x2="656.1413"
       y2="657.17554"
       gradientTransform="matrix(0.7620742,0,0,0.60964167,-0.24609,-0.32159798)"
       gradientUnits="userSpaceOnUse">
      <stop
         offset="0"
         stop-color="rgb(255, 255, 255)"
         stop-opacity="1"
         id="stop2" />
      <stop
         offset="1"
         stop-color="rgb(240, 240, 255)"
         stop-opacity="1"
         id="stop4" />
    </linearGradient>
  </defs>
  <rect
     x="0.68161011"
     y="1.68161"
     width="498.63678"
     height="397.63678"
     id="rect9"
     style="fill:url(#venn-7);fill-opacity:1;stroke:#4572a7;stroke-width:1.36321998;stroke-opacity:1" />
  <g
     class="venn-area venn-circle venn-sets-3"
     id="g21"
     transform="translate(-289)">
    <path
       d="m 429.33013,216.79378 m -110.05424,0 a 110.05424,110.05424 0 1 0 220.10849,0 110.05424,110.05424 0 1 0 -220.10849,0"
       style="fill:#d62728;fill-opacity:0.25;stroke:#ff0000;stroke-width:0;stroke-opacity:0"
       id="path15"
       inkscape:connector-curvature="0" />
    <text
       dy="0.34999999em"
       x="383"
       y="214"
       style="text-anchor:middle;fill:#d62728"
       id="text19">
      <tspan
         x="383"
         y="214"
         dy="0.34999999em"
         id="tspan17">VTSAX</tspan>
    </text>
  </g>
  <g
     class="venn-area venn-circle venn-sets-0"
     id="g29"
     transform="translate(-289)">
    <path
       d="m 472.52527,160.99659 m -41.73995,0 a 41.73995,41.73995 0 1 0 83.4799,0 41.73995,41.73995 0 1 0 -83.4799,0"
       style="fill:#1f77b4;fill-opacity:0.25;stroke:#ff0000;stroke-width:0;stroke-opacity:0"
       id="path23"
       inkscape:connector-curvature="0" />
    <text
       dy="0.34999999em"
       x="472"
       y="160"
       style="text-anchor:middle;fill:#1f77b4"
       id="text27">
      <tspan
         x="472"
         y="160"
         dy="0.34999999em"
         id="tspan25">VFIAX</tspan>
    </text>
  </g>
  <g
     class="venn-area venn-circle venn-sets-1"
     id="g37"
     transform="translate(-289)">
    <path
       d="m 432.23624,196.99033 m -25.11344,0 a 25.11344,25.11344 0 1 0 50.22688,0 25.11344,25.11344 0 1 0 -50.22688,0"
       style="fill:#ff7f0e;fill-opacity:0.25;stroke:#ff0000;stroke-width:0;stroke-opacity:0"
       id="path31"
       inkscape:connector-curvature="0" />
    <text
       dy="4.1999998"
       x="432"
       y="208"
       style="text-anchor:middle;fill:#ff7f0e"
       id="text35">
      <tspan
         x="432"
         y="208"
         dy="4.1999998"
         id="tspan33">VGSLX</tspan>
    </text>
  </g>
  <path
     inkscape:connector-curvature="0"
     id="path39"
     style="fill:#2ca02c;fill-opacity:0.25;stroke:#ff0000;stroke-width:0;stroke-opacity:0"
     d="m 143.45537,197.51536 m -24.9743,0 a 24.974306,24.974306 0 1 0 49.94861,0 24.974306,24.974306 0 1 0 -49.94861,0" />
  <text
     id="text43"
     style="text-anchor:middle;fill:#2ca02c"
     y="197"
     x="143"
     dy="4.1999998">
    <tspan
       id="tspan41"
       dy="4.1999998"
       y="197"
       x="143">VRTPX</tspan>
  </text>
  <g
     class="venn-area venn-circle venn-sets-4"
     id="g53"
     transform="translate(-289)">
    <path
       d="m 588.72411,216.8 m -170,0 a 170,170 0 1 0 340,0 170,170 0 1 0 -340,0"
       style="fill:#9467bd;fill-opacity:0.25;stroke:#ff0000;stroke-width:0;stroke-opacity:0"
       id="path47"
       inkscape:connector-curvature="0" />
    <text
       dy="0.34999999em"
       x="617"
       y="217"
       style="text-anchor:middle;fill:#9467bd"
       id="text51">
      <tspan
         x="617"
         y="217"
         dy="0.34999999em"
         id="tspan49">VTWAX</tspan>
    </text>
  </g>
  <g
     class="venn-area venn-intersection venn-sets-3_4"
     id="g57"
     transform="translate(-289)">
    <path
       d="m 456.36079,323.47686 a 170,170 0 0 1 0.008,-213.36405 110.05424,110.05424 0 0 1 -0.008,213.36405"
       style="fill-opacity:0;stroke:#ff0000;stroke-width:0;stroke-opacity:0"
       id="path55"
       inkscape:connector-curvature="0" />
  </g>
  <g
     class="venn-area venn-intersection venn-sets-0_4"
     id="g61"
     transform="translate(-289)">
    <path
       d="m 432.03673,150.85255 a 170,170 0 0 1 7.25862,-15.11453 41.739948,41.739948 0 1 1 -7.25862,15.11453"
       style="fill-opacity:0;stroke:#ff0000;stroke-width:0;stroke-opacity:0"
       id="path59"
       inkscape:connector-curvature="0" />
  </g>
  <g
     class="venn-area venn-intersection venn-sets-0_3"
     id="g65"
     transform="translate(-289)">
    <path
       d="m 482.59973,120.49068 a 110.05424,110.05424 0 0 1 26.61538,20.60418 41.739948,41.739948 0 1 1 -26.61538,-20.60418"
       style="fill-opacity:0;stroke:#ff0000;stroke-width:0;stroke-opacity:0"
       id="path63"
       inkscape:connector-curvature="0" />
  </g>
  <g
     class="venn-area venn-intersection venn-sets-1_2"
     id="g69"
     transform="translate(-289)">
    <path
       d="m 412.29657,212.25777 a 24.974306,24.974306 0 1 1 44.81663,-18.70571 25.113439,25.113439 0 0 1 -44.81663,18.70571"
       style="fill-opacity:0;stroke:#ff0000;stroke-width:0;stroke-opacity:0"
       id="path67"
       inkscape:connector-curvature="0" />
  </g>
  <g
     class="venn-area venn-intersection venn-sets-1_3"
     id="g73"
     transform="translate(-289)">
    <path
       d="m 432.23624,196.99033 m -25.11344,0 a 25.11344,25.11344 0 1 0 50.22688,0 25.11344,25.11344 0 1 0 -50.22688,0"
       style="fill-opacity:0;stroke:#ff0000;stroke-width:0;stroke-opacity:0"
       id="path71"
       inkscape:connector-curvature="0" />
  </g>
  <g
     class="venn-area venn-intersection venn-sets-2_3"
     id="g77"
     transform="translate(-289)">
    <path
       d="m 432.45537,197.51536 m -24.9743,0 a 24.974306,24.974306 0 1 0 49.94861,0 24.974306,24.974306 0 1 0 -49.94861,0"
       style="fill-opacity:0;stroke:#ff0000;stroke-width:0;stroke-opacity:0"
       id="path75"
       inkscape:connector-curvature="0" />
  </g>
  <g
     class="venn-area venn-intersection venn-sets-1_4"
     id="g81"
     transform="translate(-289)">
    <path
       d="m 418.72957,218.16236 a 170,170 0 0 1 5.70181,-45.04186 25.113439,25.113439 0 1 1 -5.70181,45.04186"
       style="fill-opacity:0;stroke:#ff0000;stroke-width:0;stroke-opacity:0"
       id="path79"
       inkscape:connector-curvature="0" />
  </g>
  <g
     class="venn-area venn-intersection venn-sets-2_4"
     id="g85"
     transform="translate(-289)">
    <path
       d="m 418.73146,218.38088 a 170,170 0 0 1 5.48439,-44.44149 24.974306,24.974306 0 1 1 -5.48439,44.44149"
       style="fill-opacity:0;stroke:#ff0000;stroke-width:0;stroke-opacity:0"
       id="path83"
       inkscape:connector-curvature="0" />
  </g>
  <g
     class="venn-area venn-intersection venn-sets-0_1"
     id="g89"
     transform="translate(-289)">
    <path
       d="m 432.22834,171.87689 a 25.113439,25.113439 0 0 1 24.96171,27.9405 41.739948,41.739948 0 0 1 -24.96171,-27.9405"
       style="fill-opacity:0;stroke:#ff0000;stroke-width:0;stroke-opacity:0"
       id="path87"
       inkscape:connector-curvature="0" />
  </g>
  <g
     class="venn-area venn-intersection venn-sets-0_2"
     id="g93"
     transform="translate(-289)">
    <path
       d="m 432.41358,172.54109 a 24.974306,24.974306 0 0 1 24.90505,27.32684 41.739948,41.739948 0 0 1 -24.90505,-27.32684"
       style="fill-opacity:0;stroke:#ff0000;stroke-width:0;stroke-opacity:0"
       id="path91"
       inkscape:connector-curvature="0" />
  </g>
  <g
     class="venn-area venn-intersection venn-sets-0_3_4"
     id="g97"
     transform="translate(-289)">
    <path
       d="m 439.29535,135.73802 a 41.739948,41.739948 0 0 1 43.30438,-15.24734 110.05424,110.05424 0 0 1 26.61538,20.60418 41.739948,41.739948 0 1 1 -77.17838,9.75769 170,170 0 0 1 7.25862,-15.11453"
       style="fill-opacity:0;stroke:#ff0000;stroke-width:0;stroke-opacity:0"
       id="path95"
       inkscape:connector-curvature="0" />
  </g>
  <g
     class="venn-area venn-intersection venn-sets-1_2_3"
     id="g101"
     transform="translate(-289)">
    <path
       d="m 412.29657,212.25777 a 24.974306,24.974306 0 1 1 44.81663,-18.70571 25.113439,25.113439 0 0 1 -44.81663,18.70571"
       style="fill-opacity:0;stroke:#ff0000;stroke-width:0;stroke-opacity:0"
       id="path99"
       inkscape:connector-curvature="0" />
  </g>
  <g
     class="venn-area venn-intersection venn-sets-1_2_4"
     id="g105"
     transform="translate(-289)">
    <path
       d="m 424.21585,173.93939 a 24.974306,24.974306 0 0 1 32.89735,19.61267 25.113439,25.113439 0 0 1 -38.38363,24.6103 170,170 0 0 1 5.48628,-44.22297"
       style="fill-opacity:0;stroke:#ff0000;stroke-width:0;stroke-opacity:0"
       id="path103"
       inkscape:connector-curvature="0" />
  </g>
  <g
     class="venn-area venn-intersection venn-sets-1_3_4"
     id="g109"
     transform="translate(-289)">
    <path
       d="m 418.72957,218.16236 a 170,170 0 0 1 5.70181,-45.04186 25.113439,25.113439 0 1 1 -5.70181,45.04186"
       style="fill-opacity:0;stroke:#ff0000;stroke-width:0;stroke-opacity:0"
       id="path107"
       inkscape:connector-curvature="0" />
  </g>
  <g
     class="venn-area venn-intersection venn-sets-2_3_4"
     id="g113"
     transform="translate(-289)">
    <path
       d="m 418.73146,218.38088 a 170,170 0 0 1 5.48439,-44.44149 24.974306,24.974306 0 1 1 -5.48439,44.44149"
       style="fill-opacity:0;stroke:#ff0000;stroke-width:0;stroke-opacity:0"
       id="path111"
       inkscape:connector-curvature="0" />
  </g>
  <g
     class="venn-area venn-intersection venn-sets-0_1_3"
     id="g117"
     transform="translate(-289)">
    <path
       d="m 432.22834,171.87689 a 25.113439,25.113439 0 0 1 24.96171,27.9405 41.739948,41.739948 0 0 1 -24.96171,-27.9405"
       style="fill-opacity:0;stroke:#ff0000;stroke-width:0;stroke-opacity:0"
       id="path115"
       inkscape:connector-curvature="0" />
  </g>
  <g
     class="venn-area venn-intersection venn-sets-0_1_4"
     id="g121"
     transform="translate(-289)">
    <path
       d="m 432.22834,171.87689 a 25.113439,25.113439 0 0 1 24.96171,27.9405 41.739948,41.739948 0 0 1 -24.96171,-27.9405"
       style="fill-opacity:0;stroke:#ff0000;stroke-width:0;stroke-opacity:0"
       id="path119"
       inkscape:connector-curvature="0" />
  </g>
  <g
     class="venn-area venn-intersection venn-sets-0_2_3"
     id="g125"
     transform="translate(-289)">
    <path
       d="m 432.41358,172.54109 a 24.974306,24.974306 0 0 1 24.90505,27.32684 41.739948,41.739948 0 0 1 -24.90505,-27.32684"
       style="fill-opacity:0;stroke:#ff0000;stroke-width:0;stroke-opacity:0"
       id="path123"
       inkscape:connector-curvature="0" />
  </g>
  <g
     class="venn-area venn-intersection venn-sets-0_2_4"
     id="g129"
     transform="translate(-289)">
    <path
       d="m 432.41358,172.54109 a 24.974306,24.974306 0 0 1 24.90505,27.32684 41.739948,41.739948 0 0 1 -24.90505,-27.32684"
       style="fill-opacity:0;stroke:#ff0000;stroke-width:0;stroke-opacity:0"
       id="path127"
       inkscape:connector-curvature="0" />
  </g>
  <g
     class="venn-area venn-intersection venn-sets-0_1_2"
     id="g133"
     transform="translate(-289)">
    <path
       d="m 432.41358,172.54109 a 24.974306,24.974306 0 0 1 24.69962,21.01097 25.113439,25.113439 0 0 1 0.0768,6.26533 41.739948,41.739948 0 0 1 -24.77647,-27.2763"
       style="fill-opacity:0;stroke:#ff0000;stroke-width:0;stroke-opacity:0"
       id="path131"
       inkscape:connector-curvature="0" />
  </g>
  <g
     class="venn-area venn-intersection venn-sets-1_2_3_4"
     id="g137"
     transform="translate(-289)">
    <path
       d="m 424.21585,173.93939 a 24.974306,24.974306 0 0 1 32.89735,19.61267 25.113439,25.113439 0 0 1 -38.38363,24.6103 170,170 0 0 1 5.48628,-44.22297"
       style="fill-opacity:0;stroke:#ff0000;stroke-width:0;stroke-opacity:0"
       id="path135"
       inkscape:connector-curvature="0" />
  </g>
  <g
     class="venn-area venn-intersection venn-sets-0_1_3_4"
     id="g141"
     transform="translate(-289)">
    <path
       d="m 432.22834,171.87689 a 25.113439,25.113439 0 0 1 24.96171,27.9405 41.739948,41.739948 0 0 1 -24.96171,-27.9405"
       style="fill-opacity:0;stroke:#ff0000;stroke-width:0;stroke-opacity:0"
       id="path139"
       inkscape:connector-curvature="0" />
  </g>
  <g
     class="venn-area venn-intersection venn-sets-0_2_3_4"
     id="g145"
     transform="translate(-289)">
    <path
       d="m 432.41358,172.54109 a 24.974306,24.974306 0 0 1 24.90505,27.32684 41.739948,41.739948 0 0 1 -24.90505,-27.32684"
       style="fill-opacity:0;stroke:#ff0000;stroke-width:0;stroke-opacity:0"
       id="path143"
       inkscape:connector-curvature="0" />
  </g>
  <g
     class="venn-area venn-intersection venn-sets-0_1_2_4"
     id="g149"
     transform="translate(-289)">
    <path
       d="m 432.41358,172.54109 a 24.974306,24.974306 0 0 1 24.69962,21.01097 25.113439,25.113439 0 0 1 0.0768,6.26533 41.739948,41.739948 0 0 1 -24.77647,-27.2763"
       style="fill-opacity:0;stroke:#ff0000;stroke-width:0;stroke-opacity:0"
       id="path147"
       inkscape:connector-curvature="0" />
  </g>
  <g
     class="venn-area venn-intersection venn-sets-0_1_2_3"
     id="g153"
     transform="translate(-289)">
    <path
       d="m 432.41358,172.54109 a 24.974306,24.974306 0 0 1 24.69962,21.01097 25.113439,25.113439 0 0 1 0.0768,6.26533 41.739948,41.739948 0 0 1 -24.77647,-27.2763"
       style="fill-opacity:0;stroke:#ff0000;stroke-width:0;stroke-opacity:0"
       id="path151"
       inkscape:connector-curvature="0" />
  </g>
  <g
     class="venn-area venn-intersection venn-sets-0_1_2_3_4"
     id="g157"
     transform="translate(-289)">
    <path
       d="m 432.41358,172.54109 a 24.974306,24.974306 0 0 1 24.69962,21.01097 25.113439,25.113439 0 0 1 0.0768,6.26533 41.739948,41.739948 0 0 1 -24.77647,-27.2763"
       style="fill-opacity:0;stroke:#ff0000;stroke-width:0;stroke-opacity:0"
       id="path155"
       inkscape:connector-curvature="0" />
  </g>
</svg>
