<svg width="1078" height="400"><defs><linearGradient id="venn-3" x1="0" y1="0" x2="1" y2="1"><stop offset="0" stop-color="rgb(255, 255, 255)" stop-opacity="1"></stop><stop offset="1" stop-color="rgb(240, 240, 255)" stop-opacity="1"></stop></linearGradient></defs><rect x="2" y="2" width="1075" height="397" fill="url(#venn-3)" stroke-width="2" stroke="#4572a7" fill-opacity="1" stroke-opacity="1"></rect><text style="font-size:10px;font-family:'Arial', sans-serif" fill="#000" class="vennchart-title" x="539" y="5"></text><text style="font-size:10px;font-family:'Arial', sans-serif" fill="#000" class="vennchart-subtitle" x="539" y="10"></text><g class="venn-area venn-circle venn-sets-3"><path d="
M 648.6297934758925 205.99640479152092 
m -92.51631961727585 0 
a 92.51631961727585 92.51631961727585 0 1 0 185.0326392345517 0 
a 92.51631961727585 92.51631961727585 0 1 0 -185.0326392345517 0" style="fill-opacity: 0.25; fill: rgb(214, 39, 40); stroke-opacity: 0; stroke: red; stroke-width: 0;"></path><text text-anchor="middle" dy=".35em" x="693" y="206" style="fill: rgb(214, 39, 40);"><tspan x="693" y="206" dy="0.35em">VTSAX</tspan></text></g><g class="venn-area venn-circle venn-sets-0"><path d="
M 622.656963359306 259.5234919877224 
m -41.755133752260996 0 
a 41.755133752260996 41.755133752260996 0 1 0 83.51026750452199 0 
a 41.755133752260996 41.755133752260996 0 1 0 -83.51026750452199 0" style="fill-opacity: 0.25; fill: rgb(31, 119, 180); stroke-opacity: 0; stroke: red; stroke-width: 0;"></path><text text-anchor="middle" dy=".35em" x="622" y="259" style="fill: rgb(31, 119, 180);"><tspan x="622" y="259" dy="0.35em">VFIAX</tspan></text></g><g class="venn-area venn-circle venn-sets-1"><path d="
M 575.8899386084332 231.3327446947507 
m -25.017366647667323 0 
a 25.017366647667323 25.017366647667323 0 1 0 50.03473329533465 0 
a 25.017366647667323 25.017366647667323 0 1 0 -50.03473329533465 0" style="fill-opacity: 0.25; fill: rgb(255, 127, 14); stroke-opacity: 0; stroke: red; stroke-width: 0;"></path><text text-anchor="middle" dy=".35em" x="575" y="231" style="fill: rgb(255, 127, 14);"><tspan x="575" y="231" dy="0.35em">VGSLX</tspan></text></g><g class="venn-area venn-circle venn-sets-2"><path d="
M 575.1056346922452 234.18136660618754 
m -24.810322812068147 0 
a 24.810322812068147 24.810322812068147 0 1 0 49.620645624136294 0 
a 24.810322812068147 24.810322812068147 0 1 0 -49.620645624136294 0" style="fill-opacity: 0.25; fill: rgb(44, 160, 44); stroke-opacity: 0; stroke: red; stroke-width: 0;"></path><text text-anchor="middle" dy=".35em" x="575" y="234" style="fill: rgb(44, 160, 44);"><tspan x="575" y="234" dy="0.35em">VRTPX</tspan></text></g><g class="venn-area venn-circle venn-sets-4"><path d="
M 506.8538869068317 206 
m -170 0 
a 170 170 0 1 0 340 0 
a 170 170 0 1 0 -340 0" style="fill-opacity: 0.25; fill: rgb(148, 103, 189); stroke-opacity: 0; stroke: red; stroke-width: 0;"></path><text text-anchor="middle" dy=".35em" x="483" y="206" style="fill: rgb(148, 103, 189);"><tspan x="483" y="206" dy="0.35em">VTWAX</tspan></text></g><g class="venn-area venn-intersection venn-sets-3_4"><path d="
M 649.474992461801 113.4839459862326 
A 170 170 0 0 1 649.4796843944022 298.50882061206136 
A 92.51631961727585 92.51631961727585 0 1 1 649.474992461801 113.4839459862326" style="fill-opacity: 0; stroke-opacity: 0; stroke: red; stroke-width: 0;"></path></g><g class="venn-area venn-intersection venn-sets-0_4"><path d="
M 622.656963359306 259.5234919877224 
m -41.755133752260996 0 
a 41.755133752260996 41.755133752260996 0 1 0 83.51026750452199 0 
a 41.755133752260996 41.755133752260996 0 1 0 -83.51026750452199 0" style="fill-opacity: 0; stroke-opacity: 0; stroke: red; stroke-width: 0;"></path></g><g class="venn-area venn-intersection venn-sets-0_3"><path d="
M 582.3947074159736 270.5888406502271 
A 41.755133752260996 41.755133752260996 0 1 1 638.8812573957526 297.9976843468627 
A 92.51631961727585 92.51631961727585 0 0 1 582.3947074159736 270.5888406502271" style="fill-opacity: 0; stroke-opacity: 0; stroke: red; stroke-width: 0;"></path></g><g class="venn-area venn-intersection venn-sets-1_2"><path d="
M 551.1155144312895 227.85473654715034 
A 24.810322812068147 24.810322812068147 0 1 1 598.9531988124622 241.0257660371946 
A 25.017366647667323 25.017366647667323 0 0 1 551.1155144312895 227.85473654715034" style="fill-opacity: 0; stroke-opacity: 0; stroke: red; stroke-width: 0;"></path></g><g class="venn-area venn-intersection venn-sets-1_3"><path d="
M 556.5936748042382 215.4103442104415 
A 25.017366647667323 25.017366647667323 0 1 1 570.6611314693607 255.79758088644024 
A 92.51631961727585 92.51631961727585 0 0 1 556.5936748042382 215.4103442104415" style="fill-opacity: 0; stroke-opacity: 0; stroke: red; stroke-width: 0;"></path></g><g class="venn-area venn-intersection venn-sets-1_4"><path d="
M 575.8899386084332 231.3327446947507 
m -25.017366647667323 0 
a 25.017366647667323 25.017366647667323 0 1 0 50.03473329533465 0 
a 25.017366647667323 25.017366647667323 0 1 0 -50.03473329533465 0" style="fill-opacity: 0; stroke-opacity: 0; stroke: red; stroke-width: 0;"></path></g><g class="venn-area venn-intersection venn-sets-2_3"><path d="
M 556.8204839809263 217.4121870942561 
A 24.810322812068147 24.810322812068147 0 1 1 572.7154512853466 258.87628797314915 
A 92.51631961727585 92.51631961727585 0 0 1 556.8204839809263 217.4121870942561" style="fill-opacity: 0; stroke-opacity: 0; stroke: red; stroke-width: 0;"></path></g><g class="venn-area venn-intersection venn-sets-2_4"><path d="
M 575.1056346922452 234.18136660618754 
m -24.810322812068147 0 
a 24.810322812068147 24.810322812068147 0 1 0 49.620645624136294 0 
a 24.810322812068147 24.810322812068147 0 1 0 -49.620645624136294 0" style="fill-opacity: 0; stroke-opacity: 0; stroke: red; stroke-width: 0;"></path></g><g class="venn-area venn-intersection venn-sets-0_1"><path d="
M 581.06742158969 255.80849399814517 
A 41.755133752260996 41.755133752260996 0 0 1 599.9509388153726 224.48169345968594 
A 25.017366647667323 25.017366647667323 0 0 1 581.06742158969 255.80849399814517" style="fill-opacity: 0; stroke-opacity: 0; stroke: red; stroke-width: 0;"></path></g><g class="venn-area venn-intersection venn-sets-0_2"><path d="
M 580.9197343585267 258.300826863614 
A 41.755133752260996 41.755133752260996 0 0 1 598.369389418423 225.55873162149362 
A 24.810322812068147 24.810322812068147 0 0 1 580.9197343585267 258.300826863614" style="fill-opacity: 0; stroke-opacity: 0; stroke: red; stroke-width: 0;"></path></g><g class="venn-area venn-intersection venn-sets-0_3_4"><path d="
M 582.3947074159736 270.5888406502271 
A 41.755133752260996 41.755133752260996 0 1 1 638.8812573957526 297.9976843468627 
A 92.51631961727585 92.51631961727585 0 0 1 582.3947074159736 270.5888406502271" style="fill-opacity: 0; stroke-opacity: 0; stroke: red; stroke-width: 0;"></path></g><g class="venn-area venn-intersection venn-sets-1_2_3"><path d="
M 556.8204839809263 217.4121870942561 
A 24.810322812068147 24.810322812068147 0 0 1 598.9531988124622 241.0257660371946 
A 25.017366647667323 25.017366647667323 0 0 1 570.6611314693607 255.79758088644024 
A 92.51631961727585 92.51631961727585 0 0 1 556.8204839809263 217.4121870942561" style="fill-opacity: 0; stroke-opacity: 0; stroke: red; stroke-width: 0;"></path></g><g class="venn-area venn-intersection venn-sets-1_2_4"><path d="
M 551.1155144312895 227.85473654715034 
A 24.810322812068147 24.810322812068147 0 1 1 598.9531988124622 241.0257660371946 
A 25.017366647667323 25.017366647667323 0 0 1 551.1155144312895 227.85473654715034" style="fill-opacity: 0; stroke-opacity: 0; stroke: red; stroke-width: 0;"></path></g><g class="venn-area venn-intersection venn-sets-1_3_4"><path d="
M 556.5936748042382 215.4103442104415 
A 25.017366647667323 25.017366647667323 0 1 1 570.6611314693607 255.79758088644024 
A 92.51631961727585 92.51631961727585 0 0 1 556.5936748042382 215.4103442104415" style="fill-opacity: 0; stroke-opacity: 0; stroke: red; stroke-width: 0;"></path></g><g class="venn-area venn-intersection venn-sets-2_3_4"><path d="
M 556.8204839809263 217.4121870942561 
A 24.810322812068147 24.810322812068147 0 1 1 572.7154512853466 258.87628797314915 
A 92.51631961727585 92.51631961727585 0 0 1 556.8204839809263 217.4121870942561" style="fill-opacity: 0; stroke-opacity: 0; stroke: red; stroke-width: 0;"></path></g><g class="venn-area venn-intersection venn-sets-0_1_4"><path d="
M 581.06742158969 255.80849399814517 
A 41.755133752260996 41.755133752260996 0 0 1 599.9509388153726 224.48169345968594 
A 25.017366647667323 25.017366647667323 0 0 1 581.06742158969 255.80849399814517" style="fill-opacity: 0; stroke-opacity: 0; stroke: red; stroke-width: 0;"></path></g><g class="venn-area venn-intersection venn-sets-0_2_4"><path d="
M 580.9197343585267 258.300826863614 
A 41.755133752260996 41.755133752260996 0 0 1 598.369389418423 225.55873162149362 
A 24.810322812068147 24.810322812068147 0 0 1 580.9197343585267 258.300826863614" style="fill-opacity: 0; stroke-opacity: 0; stroke: red; stroke-width: 0;"></path></g><g class="venn-area venn-intersection venn-sets-0_1_2"><path d="
M 581.06742158969 255.80849399814517 
A 41.755133752260996 41.755133752260996 0 0 1 598.369389418423 225.55873162149362 
A 24.810322812068147 24.810322812068147 0 0 1 598.9531988124622 241.0257660371946 
A 25.017366647667323 25.017366647667323 0 0 1 581.06742158969 255.80849399814517" style="fill-opacity: 0; stroke-opacity: 0; stroke: red; stroke-width: 0;"></path></g><g class="venn-area venn-intersection venn-sets-0_1_3"><path d="
M 581.06742158969 255.80849399814517 
A 41.755133752260996 41.755133752260996 0 0 1 599.9509388153726 224.48169345968594 
A 25.017366647667323 25.017366647667323 0 0 1 581.06742158969 255.80849399814517" style="fill-opacity: 0; stroke-opacity: 0; stroke: red; stroke-width: 0;"></path></g><g class="venn-area venn-intersection venn-sets-0_2_3"><path d="
M 580.9197343585267 258.300826863614 
A 41.755133752260996 41.755133752260996 0 0 1 598.369389418423 225.55873162149362 
A 24.810322812068147 24.810322812068147 0 0 1 580.9197343585267 258.300826863614" style="fill-opacity: 0; stroke-opacity: 0; stroke: red; stroke-width: 0;"></path></g><g class="venn-area venn-intersection venn-sets-1_2_3_4"><path d="
M 556.8204839809263 217.4121870942561 
A 24.810322812068147 24.810322812068147 0 0 1 598.9531988124622 241.0257660371946 
A 25.017366647667323 25.017366647667323 0 0 1 570.6611314693607 255.79758088644024 
A 92.51631961727585 92.51631961727585 0 0 1 556.8204839809263 217.4121870942561" style="fill-opacity: 0; stroke-opacity: 0; stroke: red; stroke-width: 0;"></path></g><g class="venn-area venn-intersection venn-sets-0_1_2_4"><path d="
M 581.06742158969 255.80849399814517 
A 41.755133752260996 41.755133752260996 0 0 1 598.369389418423 225.55873162149362 
A 24.810322812068147 24.810322812068147 0 0 1 598.9531988124622 241.0257660371946 
A 25.017366647667323 25.017366647667323 0 0 1 581.06742158969 255.80849399814517" style="fill-opacity: 0; stroke-opacity: 0; stroke: red; stroke-width: 0;"></path></g><g class="venn-area venn-intersection venn-sets-0_1_3_4"><path d="
M 581.06742158969 255.80849399814517 
A 41.755133752260996 41.755133752260996 0 0 1 599.9509388153726 224.48169345968594 
A 25.017366647667323 25.017366647667323 0 0 1 581.06742158969 255.80849399814517" style="fill-opacity: 0; stroke-opacity: 0; stroke: red; stroke-width: 0;"></path></g><g class="venn-area venn-intersection venn-sets-0_2_3_4"><path d="
M 580.9197343585267 258.300826863614 
A 41.755133752260996 41.755133752260996 0 0 1 598.369389418423 225.55873162149362 
A 24.810322812068147 24.810322812068147 0 0 1 580.9197343585267 258.300826863614" style="fill-opacity: 0; stroke-opacity: 0; stroke: red; stroke-width: 0;"></path></g><g class="venn-area venn-intersection venn-sets-0_1_2_3"><path d="
M 581.06742158969 255.80849399814517 
A 41.755133752260996 41.755133752260996 0 0 1 598.369389418423 225.55873162149362 
A 24.810322812068147 24.810322812068147 0 0 1 598.9531988124622 241.0257660371946 
A 25.017366647667323 25.017366647667323 0 0 1 581.06742158969 255.80849399814517" style="fill-opacity: 0; stroke-opacity: 0; stroke: red; stroke-width: 0;"></path></g><g class="venn-area venn-intersection venn-sets-0_1_2_3_4"><path d="
M 581.06742158969 255.80849399814517 
A 41.755133752260996 41.755133752260996 0 0 1 598.369389418423 225.55873162149362 
A 24.810322812068147 24.810322812068147 0 0 1 598.9531988124622 241.0257660371946 
A 25.017366647667323 25.017366647667323 0 0 1 581.06742158969 255.80849399814517" style="fill-opacity: 0; stroke-opacity: 0; stroke: red; stroke-width: 0;"></path></g></svg>