<?xml version="1.0" encoding="UTF-8" standalone="no"?>
<svg
   xmlns:dc="http://purl.org/dc/elements/1.1/"
   xmlns:cc="http://creativecommons.org/ns#"
   xmlns:rdf="http://www.w3.org/1999/02/22-rdf-syntax-ns#"
   xmlns:svg="http://www.w3.org/2000/svg"
   xmlns="http://www.w3.org/2000/svg"
   xmlns:sodipodi="http://sodipodi.sourceforge.net/DTD/sodipodi-0.dtd"
   xmlns:inkscape="http://www.inkscape.org/namespaces/inkscape"
   width="1078"
   height="400"
   version="1.1"
   id="svg159"
   sodipodi:docname="vanguard-2.svg"
   inkscape:version="0.92.3 (2405546, 2018-03-11)">
  <metadata
     id="metadata163">
    <rdf:RDF>
      <cc:Work
         rdf:about="">
        <dc:format>image/svg+xml</dc:format>
        <dc:type
           rdf:resource="http://purl.org/dc/dcmitype/StillImage" />
      </cc:Work>
    </rdf:RDF>
  </metadata>
  <sodipodi:namedview
     pagecolor="#ffffff"
     bordercolor="#666666"
     borderopacity="1"
     objecttolerance="10"
     gridtolerance="10"
     guidetolerance="10"
     inkscape:pageopacity="0"
     inkscape:pageshadow="2"
     inkscape:window-width="640"
     inkscape:window-height="480"
     id="namedview161"
     showgrid="false"
     inkscape:zoom="1.6372913"
     inkscape:cx="539"
     inkscape:cy="248.86119"
     inkscape:current-layer="svg159" />
  <defs
     id="defs7">
    <linearGradient
       id="venn-7"
       x1="0"
       y1="0"
       x2="1"
       y2="1">
      <stop
         offset="0"
         stop-color="rgb(255, 255, 255)"
         stop-opacity="1"
         id="stop2" />
      <stop
         offset="1"
         stop-color="rgb(240, 240, 255)"
         stop-opacity="1"
         id="stop4" />
    </linearGradient>
  </defs>
  <rect
     x="2"
     y="2"
     width="1075"
     height="397"
     fill="url(#venn-7)"
     stroke-width="2"
     stroke="#4572a7"
     fill-opacity="1"
     stroke-opacity="1"
     id="rect9" />
  <g
     class="venn-area venn-circle venn-sets-3"
     id="g21">
    <path
       d=" M 429.3301333370776 216.793780230732  m -110.05424271477472 0  a 110.05424271477472 110.05424271477472 0 1 0 220.10848542954943 0  a 110.05424271477472 110.05424271477472 0 1 0 -220.10848542954943 0"
       style="fill-opacity: 0.25; fill: rgb(214, 39, 40); stroke-opacity: 0; stroke: red; stroke-width: 0;"
       id="path15" />
    <text
       text-anchor="middle"
       dy=".35em"
       x="383"
       y="214"
       style="fill: rgb(214, 39, 40);"
       id="text19">
      <tspan
         x="383"
         y="214"
         dy="0.35em"
         id="tspan17">VTSAX</tspan>
    </text>
  </g>
  <g
     class="venn-area venn-circle venn-sets-0"
     id="g29">
    <path
       d=" M 472.52527087826707 160.99659022102583  m -41.73994841812136 0  a 41.73994841812136 41.73994841812136 0 1 0 83.47989683624272 0  a 41.73994841812136 41.73994841812136 0 1 0 -83.47989683624272 0"
       style="fill-opacity: 0.25; fill: rgb(31, 119, 180); stroke-opacity: 0; stroke: red; stroke-width: 0;"
       id="path23" />
    <text
       text-anchor="middle"
       dy=".35em"
       x="472"
       y="160"
       style="fill: rgb(31, 119, 180);"
       id="text27">
      <tspan
         x="472"
         y="160"
         dy="0.35em"
         id="tspan25">VFIAX</tspan>
    </text>
  </g>
  <g
     class="venn-area venn-circle venn-sets-1"
     id="g37">
    <path
       d=" M 432.236237200605 196.990332061326  m -25.113439278780003 0  a 25.113439278780003 25.113439278780003 0 1 0 50.226878557560006 0  a 25.113439278780003 25.113439278780003 0 1 0 -50.226878557560006 0"
       style="fill-opacity: 0.25; fill: rgb(255, 127, 14); stroke-opacity: 0; stroke: red; stroke-width: 0;"
       id="path31" />
    <text
       text-anchor="middle"
       dy=".35em"
       x="432"
       y="196"
       style="fill: rgb(255, 127, 14);"
       id="text35">
      <tspan
         x="432"
         y="196"
         dy="0.35em"
         id="tspan33">VGSLX</tspan>
    </text>
  </g>
  <g
     class="venn-area venn-circle venn-sets-2"
     id="g45">
    <path
       d=" M 432.4553742926238 197.515358131293  m -24.974305580599843 0  a 24.974305580599843 24.974305580599843 0 1 0 49.948611161199686 0  a 24.974305580599843 24.974305580599843 0 1 0 -49.948611161199686 0"
       style="fill-opacity: 0.25; fill: rgb(44, 160, 44); stroke-opacity: 0; stroke: red; stroke-width: 0;"
       id="path39" />
    <text
       text-anchor="middle"
       dy=".35em"
       x="432"
       y="197"
       style="fill: rgb(44, 160, 44);"
       id="text43">
      <tspan
         x="432"
         y="197"
         dy="0.35em"
         id="tspan41">VRTPX</tspan>
    </text>
  </g>
  <g
     class="venn-area venn-circle venn-sets-4"
     id="g53">
    <path
       d=" M 588.7241093776971 216.8  m -170 0  a 170 170 0 1 0 340 0  a 170 170 0 1 0 -340 0"
       style="fill-opacity: 0.25; fill: rgb(148, 103, 189); stroke-opacity: 0; stroke: red; stroke-width: 0;"
       id="path47" />
    <text
       text-anchor="middle"
       dy=".35em"
       x="617"
       y="217"
       style="fill: rgb(148, 103, 189);"
       id="text51">
      <tspan
         x="617"
         y="217"
         dy="0.35em"
         id="tspan49">VTWAX</tspan>
    </text>
  </g>
  <g
     class="venn-area venn-intersection venn-sets-3_4"
     id="g57">
    <path
       d=" M 456.36079378611055 323.4768610599414  A 170 170 0 0 1 456.36911954098014 110.11280927251606  A 110.05424271477472 110.05424271477472 0 0 1 456.36079378611055 323.4768610599414"
       style="fill-opacity: 0; stroke-opacity: 0; stroke: red; stroke-width: 0;"
       id="path55" />
  </g>
  <g
     class="venn-area venn-intersection venn-sets-0_4"
     id="g61">
    <path
       d=" M 432.03673134127666 150.85255452959635  A 170 170 0 0 1 439.295345771116 135.7380199661487  A 41.73994841812136 41.73994841812136 0 1 1 432.03673134127666 150.85255452959635"
       style="fill-opacity: 0; stroke-opacity: 0; stroke: red; stroke-width: 0;"
       id="path59" />
  </g>
  <g
     class="venn-area venn-intersection venn-sets-0_3"
     id="g65">
    <path
       d=" M 482.59972593418956 120.49068140177293  A 110.05424271477472 110.05424271477472 0 0 1 509.2151115781371 141.09485955845298  A 41.73994841812136 41.73994841812136 0 1 1 482.59972593418956 120.49068140177293"
       style="fill-opacity: 0; stroke-opacity: 0; stroke: red; stroke-width: 0;"
       id="path63" />
  </g>
  <g
     class="venn-area venn-intersection venn-sets-1_2"
     id="g69">
    <path
       d=" M 412.2965741461704 212.25777027749666  A 24.974305580599843 24.974305580599843 0 1 1 457.1131970721867 193.55206215384572  A 25.113439278780003 25.113439278780003 0 0 1 412.2965741461704 212.25777027749666"
       style="fill-opacity: 0; stroke-opacity: 0; stroke: red; stroke-width: 0;"
       id="path67" />
  </g>
  <g
     class="venn-area venn-intersection venn-sets-1_3"
     id="g73">
    <path
       d=" M 432.236237200605 196.990332061326  m -25.113439278780003 0  a 25.113439278780003 25.113439278780003 0 1 0 50.226878557560006 0  a 25.113439278780003 25.113439278780003 0 1 0 -50.226878557560006 0"
       style="fill-opacity: 0; stroke-opacity: 0; stroke: red; stroke-width: 0;"
       id="path71" />
  </g>
  <g
     class="venn-area venn-intersection venn-sets-2_3"
     id="g77">
    <path
       d=" M 432.4553742926238 197.515358131293  m -24.974305580599843 0  a 24.974305580599843 24.974305580599843 0 1 0 49.948611161199686 0  a 24.974305580599843 24.974305580599843 0 1 0 -49.948611161199686 0"
       style="fill-opacity: 0; stroke-opacity: 0; stroke: red; stroke-width: 0;"
       id="path75" />
  </g>
  <g
     class="venn-area venn-intersection venn-sets-1_4"
     id="g81">
    <path
       d=" M 418.72956835454545 218.16235910390873  A 170 170 0 0 1 424.43137976053754 173.12049685558583  A 25.113439278780003 25.113439278780003 0 1 1 418.72956835454545 218.16235910390873"
       style="fill-opacity: 0; stroke-opacity: 0; stroke: red; stroke-width: 0;"
       id="path79" />
  </g>
  <g
     class="venn-area venn-intersection venn-sets-2_4"
     id="g85">
    <path
       d=" M 418.73146009640135 218.38088276806894  A 170 170 0 0 1 424.21584706062293 173.93939303490095  A 24.974305580599843 24.974305580599843 0 1 1 418.73146009640135 218.38088276806894"
       style="fill-opacity: 0; stroke-opacity: 0; stroke: red; stroke-width: 0;"
       id="path83" />
  </g>
  <g
     class="venn-area venn-intersection venn-sets-0_1"
     id="g89">
    <path
       d=" M 432.2283444057976 171.8768940228423  A 25.113439278780003 25.113439278780003 0 0 1 457.19004649460175 199.8173860275271  A 41.73994841812136 41.73994841812136 0 0 1 432.2283444057976 171.8768940228423"
       style="fill-opacity: 0; stroke-opacity: 0; stroke: red; stroke-width: 0;"
       id="path87" />
  </g>
  <g
     class="venn-area venn-intersection venn-sets-0_2"
     id="g93">
    <path
       d=" M 432.41357836904854 172.54108752464757  A 24.974305580599843 24.974305580599843 0 0 1 457.31862692919015 199.867932798218  A 41.73994841812136 41.73994841812136 0 0 1 432.41357836904854 172.54108752464757"
       style="fill-opacity: 0; stroke-opacity: 0; stroke: red; stroke-width: 0;"
       id="path91" />
  </g>
  <g
     class="venn-area venn-intersection venn-sets-0_3_4"
     id="g97">
    <path
       d=" M 439.295345771116 135.7380199661487  A 41.73994841812136 41.73994841812136 0 0 1 482.59972593418956 120.49068140177293  A 110.05424271477472 110.05424271477472 0 0 1 509.2151115781371 141.09485955845298  A 41.73994841812136 41.73994841812136 0 1 1 432.03673134127666 150.85255452959635  A 170 170 0 0 1 439.295345771116 135.7380199661487"
       style="fill-opacity: 0; stroke-opacity: 0; stroke: red; stroke-width: 0;"
       id="path95" />
  </g>
  <g
     class="venn-area venn-intersection venn-sets-1_2_3"
     id="g101">
    <path
       d=" M 412.2965741461704 212.25777027749666  A 24.974305580599843 24.974305580599843 0 1 1 457.1131970721867 193.55206215384572  A 25.113439278780003 25.113439278780003 0 0 1 412.2965741461704 212.25777027749666"
       style="fill-opacity: 0; stroke-opacity: 0; stroke: red; stroke-width: 0;"
       id="path99" />
  </g>
  <g
     class="venn-area venn-intersection venn-sets-1_2_4"
     id="g105">
    <path
       d=" M 424.21584706062293 173.93939303490095  A 24.974305580599843 24.974305580599843 0 0 1 457.1131970721867 193.55206215384572  A 25.113439278780003 25.113439278780003 0 0 1 418.72956835454545 218.16235910390873  A 170 170 0 0 1 424.21584706062293 173.93939303490095"
       style="fill-opacity: 0; stroke-opacity: 0; stroke: red; stroke-width: 0;"
       id="path103" />
  </g>
  <g
     class="venn-area venn-intersection venn-sets-1_3_4"
     id="g109">
    <path
       d=" M 418.72956835454545 218.16235910390873  A 170 170 0 0 1 424.43137976053754 173.12049685558583  A 25.113439278780003 25.113439278780003 0 1 1 418.72956835454545 218.16235910390873"
       style="fill-opacity: 0; stroke-opacity: 0; stroke: red; stroke-width: 0;"
       id="path107" />
  </g>
  <g
     class="venn-area venn-intersection venn-sets-2_3_4"
     id="g113">
    <path
       d=" M 418.73146009640135 218.38088276806894  A 170 170 0 0 1 424.21584706062293 173.93939303490095  A 24.974305580599843 24.974305580599843 0 1 1 418.73146009640135 218.38088276806894"
       style="fill-opacity: 0; stroke-opacity: 0; stroke: red; stroke-width: 0;"
       id="path111" />
  </g>
  <g
     class="venn-area venn-intersection venn-sets-0_1_3"
     id="g117">
    <path
       d=" M 432.2283444057976 171.8768940228423  A 25.113439278780003 25.113439278780003 0 0 1 457.19004649460175 199.8173860275271  A 41.73994841812136 41.73994841812136 0 0 1 432.2283444057976 171.8768940228423"
       style="fill-opacity: 0; stroke-opacity: 0; stroke: red; stroke-width: 0;"
       id="path115" />
  </g>
  <g
     class="venn-area venn-intersection venn-sets-0_1_4"
     id="g121">
    <path
       d=" M 432.2283444057976 171.8768940228423  A 25.113439278780003 25.113439278780003 0 0 1 457.19004649460175 199.8173860275271  A 41.73994841812136 41.73994841812136 0 0 1 432.2283444057976 171.8768940228423"
       style="fill-opacity: 0; stroke-opacity: 0; stroke: red; stroke-width: 0;"
       id="path119" />
  </g>
  <g
     class="venn-area venn-intersection venn-sets-0_2_3"
     id="g125">
    <path
       d=" M 432.41357836904854 172.54108752464757  A 24.974305580599843 24.974305580599843 0 0 1 457.31862692919015 199.867932798218  A 41.73994841812136 41.73994841812136 0 0 1 432.41357836904854 172.54108752464757"
       style="fill-opacity: 0; stroke-opacity: 0; stroke: red; stroke-width: 0;"
       id="path123" />
  </g>
  <g
     class="venn-area venn-intersection venn-sets-0_2_4"
     id="g129">
    <path
       d=" M 432.41357836904854 172.54108752464757  A 24.974305580599843 24.974305580599843 0 0 1 457.31862692919015 199.867932798218  A 41.73994841812136 41.73994841812136 0 0 1 432.41357836904854 172.54108752464757"
       style="fill-opacity: 0; stroke-opacity: 0; stroke: red; stroke-width: 0;"
       id="path127" />
  </g>
  <g
     class="venn-area venn-intersection venn-sets-0_1_2"
     id="g133">
    <path
       d=" M 432.41357836904854 172.54108752464757  A 24.974305580599843 24.974305580599843 0 0 1 457.1131970721867 193.55206215384572  A 25.113439278780003 25.113439278780003 0 0 1 457.19004649460175 199.8173860275271  A 41.73994841812136 41.73994841812136 0 0 1 432.41357836904854 172.54108752464757"
       style="fill-opacity: 0; stroke-opacity: 0; stroke: red; stroke-width: 0;"
       id="path131" />
  </g>
  <g
     class="venn-area venn-intersection venn-sets-1_2_3_4"
     id="g137">
    <path
       d=" M 424.21584706062293 173.93939303490095  A 24.974305580599843 24.974305580599843 0 0 1 457.1131970721867 193.55206215384572  A 25.113439278780003 25.113439278780003 0 0 1 418.72956835454545 218.16235910390873  A 170 170 0 0 1 424.21584706062293 173.93939303490095"
       style="fill-opacity: 0; stroke-opacity: 0; stroke: red; stroke-width: 0;"
       id="path135" />
  </g>
  <g
     class="venn-area venn-intersection venn-sets-0_1_3_4"
     id="g141">
    <path
       d=" M 432.2283444057976 171.8768940228423  A 25.113439278780003 25.113439278780003 0 0 1 457.19004649460175 199.8173860275271  A 41.73994841812136 41.73994841812136 0 0 1 432.2283444057976 171.8768940228423"
       style="fill-opacity: 0; stroke-opacity: 0; stroke: red; stroke-width: 0;"
       id="path139" />
  </g>
  <g
     class="venn-area venn-intersection venn-sets-0_2_3_4"
     id="g145">
    <path
       d=" M 432.41357836904854 172.54108752464757  A 24.974305580599843 24.974305580599843 0 0 1 457.31862692919015 199.867932798218  A 41.73994841812136 41.73994841812136 0 0 1 432.41357836904854 172.54108752464757"
       style="fill-opacity: 0; stroke-opacity: 0; stroke: red; stroke-width: 0;"
       id="path143" />
  </g>
  <g
     class="venn-area venn-intersection venn-sets-0_1_2_4"
     id="g149">
    <path
       d=" M 432.41357836904854 172.54108752464757  A 24.974305580599843 24.974305580599843 0 0 1 457.1131970721867 193.55206215384572  A 25.113439278780003 25.113439278780003 0 0 1 457.19004649460175 199.8173860275271  A 41.73994841812136 41.73994841812136 0 0 1 432.41357836904854 172.54108752464757"
       style="fill-opacity: 0; stroke-opacity: 0; stroke: red; stroke-width: 0;"
       id="path147" />
  </g>
  <g
     class="venn-area venn-intersection venn-sets-0_1_2_3"
     id="g153">
    <path
       d=" M 432.41357836904854 172.54108752464757  A 24.974305580599843 24.974305580599843 0 0 1 457.1131970721867 193.55206215384572  A 25.113439278780003 25.113439278780003 0 0 1 457.19004649460175 199.8173860275271  A 41.73994841812136 41.73994841812136 0 0 1 432.41357836904854 172.54108752464757"
       style="fill-opacity: 0; stroke-opacity: 0; stroke: red; stroke-width: 0;"
       id="path151" />
  </g>
  <g
     class="venn-area venn-intersection venn-sets-0_1_2_3_4"
     id="g157">
    <path
       d=" M 432.41357836904854 172.54108752464757  A 24.974305580599843 24.974305580599843 0 0 1 457.1131970721867 193.55206215384572  A 25.113439278780003 25.113439278780003 0 0 1 457.19004649460175 199.8173860275271  A 41.73994841812136 41.73994841812136 0 0 1 432.41357836904854 172.54108752464757"
       style="fill-opacity: 0; stroke-opacity: 0; stroke: red; stroke-width: 0;"
       id="path155" />
  </g>
</svg>
